<?xml version="1.0"?>
<svg xmlns="http://www.w3.org/2000/svg" xmlns:xlink="http://www.w3.org/1999/xlink" version="1.1" id="Capa_1" x="0px" y="0px" viewBox="0 0 479.996 479.996" style="enable-background:new 0 0 479.996 479.996;" xml:space="preserve" width="512px" height="512px" class=""><g><g>
	<g>
		<path d="M455.695,134.86c26.702-54.733,32.113-99.067,10.269-120.912c-21.456-21.456-64.416-17.76-121.168,10.216    c-66.183-32.208-143.497-32.208-209.68,0C78.396-3.804,35.404-7.516,13.924,13.948c-21.856,21.864-16.44,66.248,10.328,121.04    C-8.045,201.195-8.086,278.579,24.14,344.82c-28,56.728-31.672,99.696-10.216,121.152c10.497,9.537,24.405,14.423,38.56,13.544    c22.4,0,50.616-8.376,82.32-23.848c66.36,32.426,143.968,32.426,210.328,0c31.68,15.448,59.912,23.824,82.272,23.816    c14.155,0.877,28.063-4.008,38.56-13.544c21.44-21.44,17.76-64.368-10.16-121.048C488.098,278.596,488.057,201.122,455.695,134.86    z M454.652,25.26c14.864,14.872,11.744,48.152-8.328,92.36c-20.604-34.56-49.507-63.432-84.088-84    C406.476,13.556,439.772,10.42,454.652,25.26z M344.9,265.7l-5.36-10.248c-4.837-9.179-13.692-15.564-23.928-17.256l-36.696-5.952    c-7.876-1.286-15.95,0.335-22.72,4.56l-8.36,5.208c-23.328,14.426-37.49,39.932-37.4,67.36v6.896    c-0.023,7.159-1.879,14.194-5.392,20.432c-10.624-9.685-21.168-19.752-31.632-30.2c-10.613-10.624-20.691-21.171-30.232-31.64    V171.484c-0.006-4.347,1.661-8.529,4.656-11.68l39.832-41.984c5.058-5.336,10.995-9.763,17.552-13.088l55.536-28.16    c9.005-4.552,18.95-6.93,29.04-6.944l95.72,0.304c21.341,18.273,39.08,40.372,52.304,65.16    c-19.644,36.629-42.932,71.182-69.512,103.136c-3.272,2.678-5.996,5.962-8.024,9.672C355.292,253.847,350.164,259.78,344.9,265.7z     M356.124,277.156v10l-3.296-6.288C353.948,279.628,355.02,278.42,356.124,277.156z M274.071,337.41l-12.395-9.822    c-5.007-3.975-12.289-3.139-16.264,1.868c-0.666,0.839-1.213,1.767-1.624,2.756l-9.6,23.104c-0.789,2.038-0.973,4.26-0.528,6.4    c-5.528-4.624-11.048-9.328-16.568-14.184c6.036-9.309,9.273-20.154,9.328-31.248v-6.896c-0.072-21.9,11.237-42.266,29.864-53.784    l8.36-5.208c3.485-2.183,7.644-3.028,11.704-2.376l36.696,5.968c5.267,0.867,9.823,4.15,12.312,8.872l8.104,15.48    c-8.704,9.451-17.699,18.835-26.984,28.152C295.76,317.193,284.958,327.498,274.071,337.41z M269.54,409.772    c-6.876-1.498-13.891-2.267-20.928-2.296h-33.184c-0.704,0-1.408,0.128-2.112,0.144c8.792-6.408,17.664-13.088,26.624-20.192v0.04    C249.908,395.372,259.775,402.807,269.54,409.772z M250.524,357.812l5.824-14.048l5.6,4.48c-3.733,3.28-7.467,6.512-11.2,9.696    L250.524,357.812z M194.772,348.892c-0.896,0.728-1.776,1.464-2.736,2.12l-26.112-29.496c9.584,9.499,19.192,18.624,28.824,27.376    H194.772z M446.332,152.82c3.519,8.357,6.522,16.923,8.992,25.648l-28.128,44.304c-3.103,4.909-8.512,7.879-14.32,7.864h-18.168    C413.857,206.039,431.115,180.026,446.332,152.82z M174.724,48.524l8.304-25.144c62.044-16.322,128.109-5.219,181.408,30.488    L289.82,53.62c-12.61,0.015-25.041,2.985-36.296,8.672l-55.536,28.16c-8.192,4.15-15.61,9.679-21.928,16.344l-39.832,42.024    c-5.809,6.115-9.043,14.23-9.032,22.664v85.424c-32.975-37.091-61.559-77.865-85.184-121.512    c3.096-5.832,6.456-11.496,10.032-17.008l40.52-5.6c1.15-0.151,2.272-0.472,3.328-0.952l33.704-15.512    c12.528-5.76,23.246-14.83,31-26.232l12.688-18.656C173.896,50.537,174.381,49.557,174.724,48.524z M164.26,29.22l-4.528,13.696    l-12.36,18.176c-6.112,8.995-14.566,16.148-24.448,20.688l-33.12,15.2l-24.8,3.44C90.887,67.984,125.24,43.342,164.26,29.22z     M25.236,25.26c14.88-14.84,48.208-11.704,92.472,8.36c-34.657,20.627-63.602,49.597-84.2,84.272    C13.5,73.548,10.468,40.02,25.236,25.26z M15.996,240.02c0-7.056,0.368-14.024,1.008-20.92l20.728,0.376    c6.306,0.002,12.219,3.062,15.864,8.208l5.976,8.456c2.319,3.274,3.564,7.188,3.56,11.2c0,0.622,0.072,1.242,0.216,1.848    l11.048,46.24c1.702,7.132,2.025,14.523,0.952,21.776l-9.424,63.616C33.581,341.027,15.948,291.299,15.996,240.02z     M25.236,454.676c-14.84-14.872-11.696-48.176,8.36-92.408c20.566,34.581,49.438,63.482,84,84.08    C73.38,466.42,40.108,469.54,25.236,454.676z M79.796,396.364l11.336-76.8c1.378-9.264,0.966-18.707-1.216-27.816l-10.8-45.368    c-0.184-6.984-2.439-13.756-6.48-19.456l-5.976-8.504c-6.613-9.356-17.343-14.935-28.8-14.976L19.068,203.1    c2.857-17.232,7.733-34.068,14.528-50.16c26.303,46.09,57.714,89.071,93.64,128.128c0.246,13.767,5.394,26.994,14.52,37.304    l40.752,46.04c3.683,4.163,9.806,5.12,14.584,2.28l1.024-0.608c3.076-1.876,5.966-4.041,8.632-6.464    c6.864,6.032,13.701,11.859,20.512,17.48c-28.788,23.052-59.651,43.387-92.192,60.744    C114.618,426.946,95.974,412.954,79.796,396.364z M239.996,464.02c-29.828,0.03-59.359-5.93-86.84-17.528l19.784-11.552    c12.894-7.529,27.557-11.499,42.488-11.504h33.168c9.447-0.003,18.826,1.587,27.744,4.704l48.224,16.8    c0.84,0.472,1.696,0.976,2.536,1.432C299.546,458.047,269.922,464.049,239.996,464.02z M330.5,430.084    c-27.247-15.694-53.283-33.405-77.888-52.984l2.192-1.808c1.826-0.298,3.552-1.034,5.032-2.144L278.02,358.7    c2.212-1.765,3.691-4.288,4.152-7.08c11.877-10.725,23.747-21.995,35.608-33.808c8.112-8.112,15.963-16.243,23.552-24.392    l8.952,17.104c2.965,5.664,9.96,7.853,15.624,4.888c3.814-1.996,6.205-5.943,6.208-10.248v-41.56c0.006-2.196,0.44-4.37,1.28-6.4    c2.16-2.584,4.28-5.16,6.4-7.744c2.753-1.826,5.984-2.8,9.288-2.8h23.76c11.286,0.033,21.796-5.739,27.824-15.28l19.728-31.048    c17.179,94.611-28.092,189.603-112.4,235.848L330.5,430.084z M454.652,454.676c-14.872,14.856-48.12,11.744-92.304-8.256    c34.551-20.577,63.423-49.449,84-84C466.348,406.548,469.5,439.82,454.652,454.676z" data-original="#000000" class="active-path" data-old_color="#ffffff" fill="#ffffff"/>
	</g>
</g><g>
	<g>
		<path d="M405.012,354.892h-0.032l-20.256-21.424c-2.188-2.309-5.227-3.619-8.408-3.624h-34.312    c-5.615-0.004-10.422,4.023-11.4,9.552l-3.016,17.064c-1.08,6.224,3.009,12.172,9.208,13.392l32.32,6.312    c0.721,0.11,1.447,0.177,2.176,0.2h27.728c6.389,0.008,11.575-5.164,11.583-11.553    C410.608,360.753,408.486,356.989,405.012,354.892z M371.692,360.364L344.1,354.98l1.6-9.136h28.696l13.736,14.52H371.692z" data-original="#000000" class="active-path" data-old_color="#ffffff" fill="#ffffff"/>
	</g>
</g></g> </svg>
